<svg width="40" height="40" viewBox="0 0 40 40" fill="none" xmlns="http://www.w3.org/2000/svg">
<rect width="40" height="40" rx="20" fill="white"/>
<path d="M19.1181 23.04C19.0248 22.4133 19.0581 21.86 19.2181 21.38C19.3781 20.9 19.5981 20.46 19.8781 20.06C20.1715 19.66 20.4648 19.28 20.7581 18.92C21.0648 18.56 21.3248 18.2 21.5381 17.84C21.7515 17.48 21.8581 17.0867 21.8581 16.66C21.8581 16.1267 21.6915 15.6733 21.3581 15.3C21.0381 14.9133 20.5581 14.72 19.9181 14.72C19.4781 14.72 19.0581 14.8267 18.6581 15.04C18.2715 15.24 17.9248 15.52 17.6181 15.88L16.6781 15.02C17.1048 14.54 17.5981 14.1467 18.1581 13.84C18.7315 13.52 19.3848 13.36 20.1181 13.36C21.1315 13.36 21.9381 13.6467 22.5381 14.22C23.1515 14.7933 23.4581 15.5733 23.4581 16.56C23.4581 17.08 23.3515 17.5533 23.1381 17.98C22.9248 18.3933 22.6581 18.7867 22.3381 19.16C22.0315 19.5333 21.7315 19.9133 21.4381 20.3C21.1448 20.6867 20.9048 21.1 20.7181 21.54C20.5448 21.98 20.4915 22.48 20.5581 23.04H19.1181ZM19.8781 27.24C19.5448 27.24 19.2648 27.1267 19.0381 26.9C18.8115 26.66 18.6981 26.36 18.6981 26C18.6981 25.6133 18.8115 25.3067 19.0381 25.08C19.2648 24.84 19.5448 24.72 19.8781 24.72C20.2115 24.72 20.4915 24.84 20.7181 25.08C20.9581 25.3067 21.0781 25.6133 21.0781 26C21.0781 26.36 20.9581 26.66 20.7181 26.9C20.4915 27.1267 20.2115 27.24 19.8781 27.24Z" fill="#06825D"/>
</svg>
