<svg width="16" height="16" viewBox="0 0 16 16" fill="none" xmlns="http://www.w3.org/2000/svg">
<path d="M7.52869 13.8047C7.40371 13.6796 7.3335 13.5101 7.3335 13.3333C7.3335 13.1565 7.40371 12.987 7.52869 12.862L12.3907 7.99999L7.52869 3.13799C7.40725 3.01225 7.34005 2.84385 7.34157 2.66905C7.34309 2.49425 7.4132 2.32705 7.53681 2.20344C7.66041 2.07984 7.82762 2.00972 8.00242 2.0082C8.17722 2.00668 8.34562 2.07388 8.47135 2.19532L13.8047 7.52865C13.9297 7.65367 13.9999 7.82321 13.9999 7.99999C13.9999 8.17676 13.9297 8.3463 13.8047 8.47132L8.47135 13.8047C8.34634 13.9296 8.1768 13.9998 8.00002 13.9998C7.82324 13.9998 7.65371 13.9296 7.52869 13.8047Z" fill="white"/>
<path d="M14 8.00004C14 8.17685 13.9298 8.34642 13.8047 8.47145C13.6797 8.59647 13.5101 8.66671 13.3333 8.66671H2.66667C2.48986 8.66671 2.32029 8.59647 2.19526 8.47145C2.07024 8.34642 2 8.17685 2 8.00004C2 7.82323 2.07024 7.65366 2.19526 7.52864C2.32029 7.40361 2.48986 7.33337 2.66667 7.33337H13.3333C13.5101 7.33337 13.6797 7.40361 13.8047 7.52864C13.9298 7.65366 14 7.82323 14 8.00004Z" fill="white"/>
</svg>
